<?xml version="1.0" standalone="no"?>
<!DOCTYPE svg PUBLIC "-//W3C//DTD SVG 20010904//EN"
 "http://www.w3.org/TR/2001/REC-SVG-20010904/DTD/svg10.dtd">
<svg version="1.0" xmlns="http://www.w3.org/2000/svg"
 width="418.000000pt" height="377.000000pt" viewBox="0 0 418.000000 377.000000"
 preserveAspectRatio="xMidYMid meet">

<g transform="translate(0.000000,377.000000) scale(0.100000,-0.100000)"
fill="#000000" stroke="none">
<path d="M961 3628 c-90 -13 -223 -65 -310 -123 -157 -104 -317 -297 -417
-500 -109 -224 -147 -390 -148 -645 -1 -244 36 -422 130 -627 146 -322 486
-707 919 -1043 228 -177 619 -423 858 -541 l88 -44 127 65 c442 227 891 549
1218 875 242 240 398 444 499 650 256 523 185 1149 -180 1590 -213 259 -469
378 -739 345 -99 -12 -232 -53 -323 -99 l-58 -29 45 -12 c60 -16 118 -60 158
-119 l34 -49 56 20 c32 11 96 22 143 25 182 12 337 -72 491 -265 163 -205 247
-433 256 -699 5 -159 -6 -261 -44 -392 -101 -348 -423 -743 -913 -1119 l-93
-72 -30 62 c-92 195 -260 359 -446 434 -33 13 -176 51 -318 83 -410 95 -621
161 -747 236 -102 61 -167 43 -167 -46 1 -63 29 -118 97 -186 122 -122 282
-221 464 -287 l94 -34 -38 -7 c-82 -16 -287 34 -425 104 -207 104 -458 325
-669 588 -204 254 -218 294 -217 593 0 177 3 204 26 290 57 212 161 394 308
540 136 137 257 188 414 177 95 -7 199 -40 302 -97 l74 -40 6 27 c12 50 54
137 84 175 l30 36 -89 46 c-115 59 -245 102 -351 115 -95 12 -109 12 -199 -1z"/>
<path d="M1684 3444 c-51 -33 -99 -104 -127 -185 -31 -95 -31 -321 1 -432 62
-215 178 -347 306 -347 57 0 93 17 136 67 152 173 138 578 -28 803 -83 113
-200 151 -288 94z"/>
<path d="M2522 3404 c-72 -36 -143 -118 -197 -227 -67 -136 -80 -196 -79 -362
0 -161 16 -219 81 -295 89 -104 217 -90 333 37 166 182 228 535 131 740 -32
66 -60 95 -113 118 -53 22 -97 19 -156 -11z"/>
<path d="M1155 2717 c-42 -20 -90 -72 -116 -126 -28 -57 -38 -228 -20 -324 29
-149 150 -323 265 -381 110 -56 214 -21 273 91 142 265 -53 730 -314 749 -37
3 -69 -1 -88 -9z"/>
<path d="M2962 2539 c-63 -25 -135 -92 -192 -180 -89 -138 -124 -347 -81 -489
69 -226 301 -233 457 -14 90 126 126 239 125 398 0 143 -47 243 -135 285 -53
26 -106 26 -174 0z"/>
<path d="M2032 2162 c-74 -27 -174 -98 -259 -184 -105 -107 -258 -317 -242
-332 11 -12 262 -78 505 -135 279 -65 312 -74 395 -116 119 -61 256 -176 320
-270 13 -19 28 -35 32 -35 4 0 17 19 27 43 40 87 20 224 -59 407 -81 189 -172
323 -320 471 -151 150 -272 196 -399 151z"/>
</g>
</svg>
