<?xml version="1.0" standalone="no"?>
<!DOCTYPE svg PUBLIC "-//W3C//DTD SVG 20010904//EN"
 "http://www.w3.org/TR/2001/REC-SVG-20010904/DTD/svg10.dtd">
<svg version="1.0" xmlns="http://www.w3.org/2000/svg"
 width="2048.000000pt" height="1536.000000pt" viewBox="0 0 2048.000000 1536.000000"
 preserveAspectRatio="xMidYMid meet">

<g transform="translate(0.000000,1536.000000) scale(0.100000,-0.100000)"
fill="#000000" stroke="none">
<path d="M9930 13414 c-433 -38 -833 -258 -1072 -590 -59 -83 -6161 -10644
-6154 -10651 2 -3 179 20 393 51 3072 439 6541 672 9053 606 2428 -63 4198
-336 5553 -854 37 -14 67 -24 67 -22 0 9 -267 202 -456 329 -1087 734 -2383
1369 -3714 1818 -1456 492 -2870 757 -4375 820 -317 13 -1143 7 -1403 -11 -90
-6 -166 -10 -170 -8 -8 3 2369 4127 2379 4128 8 0 1749 -3014 1749 -3028 0 -5
-26 -12 -57 -16 -276 -32 -831 -177 -1312 -341 -293 -100 -649 -239 -541 -212
123 32 641 33 1010 2 825 -69 1716 -224 2534 -441 1246 -331 2276 -787 2996
-1328 147 -110 165 -123 158 -110 -3 5 -1190 2061 -2638 4569 -1447 2508
-2660 4603 -2695 4655 -212 317 -572 549 -950 614 -95 16 -279 26 -355 20z"/>
</g>
</svg>
